<svg xmlns="http://www.w3.org/2000/svg" style="display:none">

  <symbol id="brand-github" viewBox="0 0 24 24" fill="none" stroke="currentColor" stroke-width="1.5"
    stroke-linecap="round" stroke-linejoin="round">
    <path stroke="none" d="M0 0h24v24H0z" fill="none" />
    <path
      d="M9 19c-4.3 1.4 -4.3 -2.5 -6 -3m12 5v-3.5c0 -1 .1 -1.4 -.5 -2c2.8 -.3 5.5 -1.4 5.5 -6a4.6 4.6 0 0 0 -1.3 -3.2a4.2 4.2 0 0 0 -.1 -3.2s-1.1 -.3 -3.5 1.3a12.3 12.3 0 0 0 -6.2 0c-2.4 -1.6 -3.5 -1.3 -3.5 -1.3a4.2 4.2 0 0 0 -.1 3.2a4.6 4.6 0 0 0 -1.3 3.2c0 4.6 2.7 5.7 5.5 6c-.6 .6 -.6 1.2 -.5 2v3.5" />
  </symbol>

  <symbol id="file-cv" viewBox="0 0 24 24" fill="none" stroke="currentColor" stroke-width="1.5"
    stroke-linecap="round" stroke-linejoin="round">
    <path stroke="none" d="M0 0h24v24H0z" fill="none" />
    <path d="M14 3v4a1 1 0 0 0 1 1h4" />
    <path d="M17 21h-10a2 2 0 0 1 -2 -2v-14a2 2 0 0 1 2 -2h7l5 5v11a2 2 0 0 1 -2 2" />
    <path d="M11 12.5a1.5 1.5 0 0 0 -3 0v3a1.5 1.5 0 0 0 3 0" />
    <path d="M13 11l1.5 6l1.5 -6" />
  </symbol>

  <symbol id="brand-linkedin" viewBox="0 0 24 24" fill="none" stroke="currentColor"
    stroke-width="1.5" stroke-linecap="round" stroke-linejoin="round">
    <path stroke="none" d="M0 0h24v24H0z" fill="none" />
    <path d="M8 11v5" />
    <path d="M8 8v.01" />
    <path d="M12 16v-5" />
    <path d="M16 16v-3a2 2 0 1 0 -4 0" />
    <path d="M3 7a4 4 0 0 1 4 -4h10a4 4 0 0 1 4 4v10a4 4 0 0 1 -4 4h-10a4 4 0 0 1 -4 -4l0 -10" />
  </symbol>


  <symbol id="menu" viewBox="0 0 24 24" fill="none" stroke="currentColor" stroke-width="1.5"
    stroke-linecap="round" stroke-linejoin="round">
    <path stroke="none" d="M0 0h24v24H0z" fill="none" />
    <path d="M4 6l16 0" />
    <path d="M4 12l16 0" />
    <path d="M4 18l16 0" />
  </symbol>

  <symbol id="x" viewBox="0 0 24 24" fill="none" stroke="currentColor" stroke-width="1.5"
    stroke-linecap="round" stroke-linejoin="round">
    <path stroke="none" d="M0 0h24v24H0z" fill="none" />
    <path d="M18 6l-12 12" />
    <path d="M6 6l12 12" />
  </symbol>

  <symbol id="compact-down" viewBox="0 0 24 24" fill="none"
    stroke="currentColor" stroke-width="1.5" stroke-linecap="round" stroke-linejoin="round">
    <path stroke="none" d="M0 0h24v24H0z" fill="none" />
    <path d="M4 11l8 3l8 -3" />
  </symbol>

  <symbol id="web" width="24" height="24" viewBox="0 0 24 24" fill="none"
    stroke="currentColor" stroke-width="1.5" stroke-linecap="round" stroke-linejoin="round">
    <path stroke="none" d="M0 0h24v24H0z" fill="none" />
    <path d="M19.5 7a9 9 0 0 0 -7.5 -4a8.991 8.991 0 0 0 -7.484 4" />
    <path d="M11.5 3a16.989 16.989 0 0 0 -1.826 4" />
    <path d="M12.5 3a16.989 16.989 0 0 1 1.828 4" />
    <path d="M19.5 17a9 9 0 0 1 -7.5 4a8.991 8.991 0 0 1 -7.484 -4" />
    <path d="M11.5 21a16.989 16.989 0 0 1 -1.826 -4" />
    <path d="M12.5 21a16.989 16.989 0 0 0 1.828 -4" />
    <path d="M2 10l1 4l1.5 -4l1.5 4l1 -4" />
    <path d="M17 10l1 4l1.5 -4l1.5 4l1 -4" />
    <path d="M9.5 10l1 4l1.5 -4l1.5 4l1 -4" />
  </symbol>


  <symbol id="send" viewBox="0 0 24 24" fill="none" stroke="currentColor" stroke-width="1.5"
    stroke-linecap="round" stroke-linejoin="round">
    <path stroke="none" d="M0 0h24v24H0z" fill="none" />
    <path d="M10 14l11 -11" />
    <path d="M21 3l-6.5 18a.55 .55 0 0 1 -1 0l-3.5 -7l-7 -3.5a.55 .55 0 0 1 0 -1l18 -6.5" />
  </symbol>

  <symbol id="circle-check" viewBox="0 0 24 24" fill="none" stroke="currentColor" stroke-width="1.5"
    stroke-linecap="round" stroke-linejoin="round">
    <path stroke="none" d="M0 0h24v24H0z" fill="none" />
    <path d="M12 12m-9 0a9 9 0 1 0 18 0a9 9 0 1 0 -18 0" />
    <path d="M9 12l2 2l4 -4" />
  </symbol>

  <symbol id="circle-x" viewBox="0 0 24 24" fill="none" stroke="currentColor" stroke-width="1.5"
    stroke-linecap="round" stroke-linejoin="round">
    <path stroke="none" d="M0 0h24v24H0z" fill="none" />
    <path d="M12 12m-9 0a9 9 0 1 0 18 0a9 9 0 1 0 -18 0" />
    <path d="M10 10l4 4m0 -4l-4 4" />
  </symbol>

</svg>