<svg xmlns="http://www.w3.org/2000/svg" style="display: none;">
  <!-- about -->
  <symbol id="icon-about" viewBox="0 0 24 24" fill="none" stroke="currentColor" stroke-width="2">
    <path stroke-linecap="round" stroke-linejoin="round"
      d="m11.25 11.25.041-.02a.75.75 0 0 1 1.063.852l-.708 2.836a.75.75 0 0 0 1.063.853l.041-.021M21 12a9 9 0 1 1-18 0 9 9 0 0 1 18 0Zm-9-3.75h.008v.008H12V8.25Z" />
  </symbol>

  <!-- blub -->
  <symbol id="icon-blub" viewBox="0 0 24 24" fill="none"
    stroke="currentColor" stroke-width="1" stroke-linecap="round" stroke-linejoin="round">
    <path stroke="none" d="M0 0h24v24H0z" fill="none" />
    <path d="M3 12h1m8 -9v1m8 8h1m-15.4 -6.4l.7 .7m12.1 -.7l-.7 .7" />
    <path d="M9 16a5 5 0 1 1 6 0a3.5 3.5 0 0 0 -1 3a2 2 0 0 1 -4 0a3.5 3.5 0 0 0 -1 -3" />
    <path d="M9.7 17l4.6 0" />
  </symbol>

  <!-- cross -->
  <symbol id="icon-cross" viewBox="0 0 24 24" fill="none"
    stroke="currentColor" stroke-width="2" stroke-linecap="round" stroke-linejoin="round">    <path stroke="none" d="M0 0h24v24H0z" fill="none" />
    <path d="M18 6l-12 12" />
    <path d="M6 6l12 12" />
  </symbol>

  <!-- design -->
  <symbol id="icon-design" viewBox="0 0 24 24" fill="none"
    stroke="currentColor" stroke-width="1" stroke-linecap="round" stroke-linejoin="round">
    <path stroke="none" d="M0 0h24v24H0z" fill="none" />
    <path d="M12 8m-5 0a5 5 0 1 0 10 0a5 5 0 1 0 -10 0" />
    <path d="M8 11a5 5 0 1 0 3.998 1.997" />
    <path d="M12.002 19.003a5 5 0 1 0 3.998 -8.003" />
  </symbol>

  <!-- download -->
  <symbol id="icon-download" viewBox="0 0 24 24" fill="none"
    stroke="currentColor" stroke-width="1.5" stroke-linecap="round" stroke-linejoin="round">
    <path stroke="none" d="M0 0h24v24H0z" fill="none" />
    <path d="M14 3v4a1 1 0 0 0 1 1h4" />
    <path d="M17 21h-10a2 2 0 0 1 -2 -2v-14a2 2 0 0 1 2 -2h7l5 5v11a2 2 0 0 1 -2 2z" />
    <path d="M12 17v-6" />
    <path d="M9.5 14.5l2.5 2.5l2.5 -2.5" />
  </symbol>

  <!-- email -->
  <symbol id="icon-email" viewBox="0 0 24 24" fill="none"
    stroke="currentColor" stroke-width="1.5" stroke-linecap="round" stroke-linejoin="round">
    <path stroke="none" d="M0 0h24v24H0z" fill="none" />
    <path d="M3 7a2 2 0 0 1 2 -2h14a2 2 0 0 1 2 2v10a2 2 0 0 1 -2 2h-14a2 2 0 0 1 -2 -2v-10z" />
    <path d="M3 7l9 6l9 -6" />
  </symbol>

  <!-- experience -->
  <symbol id="icon-experience" viewBox="0 0 24 24" fill="none" stroke="currentColor"
    stroke-width="2">
    <path stroke-linecap="round" stroke-linejoin="round"
      d="M20.25 14.15v4.25c0 1.094-.787 2.036-1.872 2.18-2.087.277-4.216.42-6.378.42s-4.291-.143-6.378-.42c-1.085-.144-1.872-1.086-1.872-2.18v-4.25m16.5 0a2.18 2.18 0 0 0 .75-1.661V8.706c0-1.081-.768-2.015-1.837-2.175a48.114 48.114 0 0 0-3.413-.387m4.5 8.006c-.194.165-.42.295-.673.38A23.978 23.978 0 0 1 12 15.75c-2.648 0-5.195-.429-7.577-1.22a2.016 2.016 0 0 1-.673-.38m0 0A2.18 2.18 0 0 1 3 12.489V8.706c0-1.081.768-2.015 1.837-2.175a48.111 48.111 0 0 1 3.413-.387m7.5 0V5.25A2.25 2.25 0 0 0 13.5 3h-3a2.25 2.25 0 0 0-2.25 2.25v.894m7.5 0a48.667 48.667 0 0 0-7.5 0M12 12.75h.008v.008H12v-.008Z" />
  </symbol>

  <!-- github -->
  <symbol id="icon-github" viewBox="0 0 24 24" fill="none"
    stroke="currentColor" stroke-width="1.5" stroke-linecap="round" stroke-linejoin="round">
    <path stroke="none" d="M0 0h24v24H0z" fill="none" />
    <path
      d="M9 19c-4.3 1.4 -4.3 -2.5 -6 -3m12 5v-3.5c0 -1 .1 -1.4 -.5 -2c2.8 -.3 5.5 -1.4 5.5 -6a4.6 4.6 0 0 0 -1.3 -3.2a4.2 4.2 0 0 0 -.1 -3.2s-1.1 -.3 -3.5 1.3a12.3 12.3 0 0 0 -6.2 0c-2.4 -1.6 -3.5 -1.3 -3.5 -1.3a4.2 4.2 0 0 0 -.1 3.2a4.6 4.6 0 0 0 -1.3 3.2c0 4.6 2.7 5.7 5.5 6c-.6 .6 -.6 1.2 -.5 2v3.5" />
  </symbol>

  <!-- home -->
  <symbol id="icon-home" viewBox="0 0 24 24" fill="none" stroke="currentColor" stroke-width="2">
    <path stroke-linecap="round" stroke-linejoin="round"
      d="M2.25 12L11.204 3.045a1.125 1.125 0 0 1 1.591 0L21.75 12M4.5 9.75v10.125a1.125 1.125 0 0 0 1.125 1.125H9.75v-4.875a1.125 1.125 0 0 1 1.125-1.125h2.25a1.125 1.125 0 0 1 1.125 1.125V21h4.125a1.125 1.125 0 0 0 1.125-1.125V9.75M8.25 21h8.25" />
  </symbol>

  <!-- HR logo -->
  <symbol id="icon-hr" viewBox="0 0 636 440" fill="currentColor" stroke="none">
    <path d="M215.5 1C167.075 44.7387 140.925 75.2613 92.5 119L53.0001 255L176.5 136L215.5 1Z"
      stroke-width="10" stroke-linejoin="round" />
    <path
      d="M305 168.5H168L44.83 285C31.2779 330.884 17.5945 377.403 1.00009 438L124 319.5L142.5 255H279.5L403 136L443.5 1L319 119L305 168.5Z"
      stroke-width="10" stroke-linejoin="round" />
    <path d="M351.342 319.656L227 438.5L274 285L393.5 168.5L351.342 319.656Z"
      stroke-width="10" stroke-linejoin="round" />
    <path d="M423 140.5L479 86.5H438L462 1H635L494 140.5L589 438.5L479 319.656L423 140.5Z"
      stroke-width="10" stroke-linejoin="round" />
  </symbol>

  <!-- linkedin -->
  <symbol id="icon-linkedin" viewBox="0 0 24 24" fill="none"
    stroke="currentColor" stroke-width="1.5" stroke-linecap="round" stroke-linejoin="round">
    <path stroke="none" d="M0 0h24v24H0z" fill="none" />
    <path d="M8 11v5" />
    <path d="M8 8v.01" />
    <path d="M12 16v-5" />
    <path d="M16 16v-3a2 2 0 1 0 -4 0" />
    <path d="M3 7a4 4 0 0 1 4 -4h10a4 4 0 0 1 4 4v10a4 4 0 0 1 -4 4h-10a4 4 0 0 1 -4 -4z" />
  </symbol>

  <!-- menu -->
  <symbol id="icon-menu" viewBox="0 0 24 24" fill="none"
    stroke="currentColor" stroke-width="1.5" stroke-linecap="round" stroke-linejoin="round">
    <path stroke="none" d="M0 0h24v24H0z" fill="none" />
    <path d="M4 6h16" />
    <path d="M7 12h13" />
    <path d="M10 18h10" />
  </symbol>

  <!-- projects -->
  <symbol id="icon-projects" viewBox="0 0 24 24" fill="none" stroke="currentColor"
    stroke-width="2">
    <path stroke-linecap="round" stroke-linejoin="round"
      d="M9.594 3.94c.09-.542.56-.94 1.11-.94h2.593c.55 0 1.02.398 1.11.94l.213 1.281c.063.374.313.686.645.87.074.04.147.083.22.127.325.196.72.257 1.075.124l1.217-.456a1.125 1.125 0 0 1 1.37.49l1.296 2.247a1.125 1.125 0 0 1-.26 1.431l-1.003.827c-.293.241-.438.613-.43.992a7.723 7.723 0 0 1 0 .255c-.008.378.137.75.43.991l1.004.827c.424.35.534.955.26 1.43l-1.298 2.247a1.125 1.125 0 0 1-1.369.491l-1.217-.456c-.355-.133-.75-.072-1.076.124a6.47 6.47 0 0 1-.22.128c-.331.183-.581.495-.644.869l-.213 1.281c-.09.543-.56.94-1.11.94h-2.594c-.55 0-1.019-.398-1.11-.94l-.213-1.281c-.062-.374-.312-.686-.644-.87a6.52 6.52 0 0 1-.22-.127c-.325-.196-.72-.257-1.076-.124l-1.217.456a1.125 1.125 0 0 1-1.369-.49l-1.297-2.247a1.125 1.125 0 0 1 .26-1.431l1.004-.827c.292-.24.437-.613.43-.991a6.932 6.932 0 0 1 0-.255c.007-.38-.138-.751-.43-.992l-1.004-.827a1.125 1.125 0 0 1-.26-1.43l1.297-2.247a1.125 1.125 0 0 1 1.37-.491l1.216.456c.356.133.751.072 1.076-.124.072-.044.146-.086.22-.128.332-.183.582-.495.644-.869l.214-1.28Z" />
    <path stroke-linecap="round" stroke-linejoin="round" d="M15 12a3 3 0 1 1-6 0 3 3 0 0 1 6 0Z" />
  </symbol>

  <!-- rocket -->
  <symbol id="icon-rocket" viewBox="0 0 24 24" fill="none"
    stroke="currentColor" stroke-width="1" stroke-linecap="round" stroke-linejoin="round">
    <path stroke="none" d="M0 0h24v24H0z" fill="none" />
    <path
      d="M4 13a8 8 0 0 1 7 7a6 6 0 0 0 3 -5a9 9 0 0 0 6 -8a3 3 0 0 0 -3 -3a9 9 0 0 0 -8 6a6 6 0 0 0 -5 3" />
    <path d="M7 14a6 6 0 0 0 -3 6a6 6 0 0 0 6 -3" />
    <path d="M15 9m-1 0a1 1 0 1 0 2 0a1 1 0 1 0 -2 0" />
  </symbol>
</svg>