<svg xmlns="http://www.w3.org/2000/svg" style="display: none;">
    <!-- css -->
    <symbol id="tech-css" viewBox="0 0 1000 1000">
        <path fill="#639"
            d="M0 0h840a160 160 0 0 1 160 160v680a160 160 0 0 1-160 160H160A160 160 0 0 1 0 840V0Z" />
        <path fill="#fff"
            d="M816.54 919.9c-32.39 0-57.16-9.42-74.5-28.35-17.15-19.03-26.08-46.18-26.88-81.64h69.8c.4 31.36 11.42 47.08 33.08 47.08 11.04 0 18.86-3.5 23.37-10.42 4.41-6.9 6.72-17.93 6.72-33.05 0-12.02-3.01-22.04-8.83-29.95a73.2 73.2 0 0 0-29.48-21.14L783.95 750c-23.06-11.02-39.81-24.04-50.14-39.27-10.03-15.13-15.04-36.36-15.04-63.5 0-30.36 8.83-55 26.37-73.94 18.05-18.93 42.62-28.34 74-28.34 30.3 0 53.76 9.31 70.3 27.84 16.85 18.64 25.67 45.28 26.38 80.14h-67.19c.4-11.4-1.9-22.72-6.72-33.06-3.8-7.6-11.23-11.41-22.26-11.41-19.65 0-29.48 11.71-29.48 35.05 0 11.83 2.4 21.04 7.22 28.05A65.18 65.18 0 0 0 822.76 689l24.77 10.92c25.57 11.72 44.02 26.05 55.35 43.38 11.43 17.23 17.05 40.27 17.05 69.12 0 34.56-9.03 61.1-27.38 79.63-18.25 18.53-43.62 27.85-76 27.85Zm-225.42 0c-32.4 0-57.16-9.42-74.51-28.35-17.15-19.03-26.07-46.18-26.87-81.64h69.79c.4 31.36 11.43 47.08 33.1 47.08 11.02 0 18.84-3.5 23.25-10.42 4.52-6.9 6.72-17.93 6.72-33.05 0-12.02-2.9-22.04-8.72-29.95a73.2 73.2 0 0 0-29.48-21.14L558.53 750c-23.07-11.02-39.81-24.04-50.14-39.27-10.03-15.13-15.04-36.36-15.04-63.5 0-30.36 8.82-55 26.37-73.94 18.05-18.93 42.62-28.34 74-28.34 30.29 0 53.75 9.31 70.2 27.84 17.05 18.64 25.77 45.28 26.47 80.14h-67.18c.4-11.4-1.9-22.72-6.72-33.06-3.81-7.6-11.23-11.41-22.26-11.41-19.66 0-29.49 11.71-29.49 35.05 0 11.83 2.41 21.04 7.22 28.05A65.18 65.18 0 0 0 597.33 689l24.77 10.92c25.57 11.72 44.02 26.05 55.36 43.38 11.33 17.23 17.04 40.27 17.04 69.12 0 34.56-9.12 61.1-27.37 79.63-18.25 18.53-43.62 27.85-76.01 27.85Zm-234.75 0c-31.7 0-56.86-8.62-75.51-25.85-18.65-17.12-27.88-42.87-27.88-76.93V648.83c0-33.85 9.83-59.5 29.48-77.13 19.96-17.43 46.13-26.24 78.52-26.24 31.39 0 56.15 9.01 74.5 26.84 18.56 17.93 27.88 44.58 27.88 80.14v13.32h-73.9v-12.92c0-13.72-3.01-23.84-8.83-30.45a26.46 26.46 0 0 0-21.66-10.32c-12.03 0-20.55 4.1-25.37 12.42a79.04 79.04 0 0 0-6.72 36.66v146.26c0 30.55 10.74 46.08 32.1 46.38 10.02 0 17.54-3.61 22.76-10.82a51.74 51.74 0 0 0 7.72-30.46V801.6h73.9v11.42c0 23.74-4.61 43.57-13.94 59.4a88.8 88.8 0 0 1-38.2 35.66 121.46 121.46 0 0 1-54.85 11.82Z" />
    </symbol>

    <!-- express -->
    <symbol id="tech-express" viewBox="0 0 32 32">
        <path fill="#fff"
            d="M32 24.795c-1.164.296-1.884.013-2.53-.957l-4.594-6.356-.664-.88-5.365 7.257c-.613.873-1.256 1.253-2.4.944l6.87-9.222-6.396-8.33c1.1-.214 1.86-.105 2.535.88l4.765 6.435 4.8-6.4c.615-.873 1.276-1.205 2.38-.883l-2.48 3.288-3.36 4.375c-.4.5-.345.842.023 1.325L32 24.795zM.008 15.427l.562-2.764C2.1 7.193 8.37 4.92 12.694 8.3c2.527 1.988 3.155 4.8 3.03 7.95H1.48c-.214 5.67 3.867 9.092 9.07 7.346 1.825-.613 2.9-2.042 3.438-3.83.273-.896.725-1.036 1.567-.78-.43 2.236-1.4 4.104-3.45 5.273-3.063 1.75-7.435 1.184-9.735-1.248C1 21.6.434 19.812.18 17.9c-.04-.316-.12-.617-.18-.92q.008-.776.008-1.552zm1.498-.38h12.872c-.084-4.1-2.637-7.012-6.126-7.037-3.83-.03-6.58 2.813-6.746 7.037z" />
    </symbol>

    <!-- git -->
    <symbol id="tech-git" viewBox="0 0 256 256">
        <path
            d="M251.17 116.6 139.4 4.82a16.49 16.49 0 0 0-23.31 0l-23.21 23.2 29.44 29.45a19.57 19.57 0 0 1 24.8 24.96l28.37 28.38a19.61 19.61 0 1 1-11.75 11.06L137.28 95.4v69.64a19.62 19.62 0 1 1-16.13-.57V94.2a19.61 19.61 0 0 1-10.65-25.73L81.46 39.44 4.83 116.08a16.49 16.49 0 0 0 0 23.32L116.6 251.17a16.49 16.49 0 0 0 23.32 0l111.25-111.25a16.5 16.5 0 0 0 0-23.33"
            fill="#DE4C36" />
    </symbol>

    <!-- github -->
    <symbol id="tech-github" viewBox="0 0 1024 1024">
        <path fill-rule="evenodd" clip-rule="evenodd"
            d="M8 0C3.58 0 0 3.58 0 8C0 11.54 2.29 14.53 5.47 15.59C5.87 15.66 6.02 15.42 6.02 15.21C6.02 15.02 6.01 14.39 6.01 13.72C4 14.09 3.48 13.23 3.32 12.78C3.23 12.55 2.84 11.84 2.5 11.65C2.22 11.5 1.82 11.13 2.49 11.12C3.12 11.11 3.57 11.7 3.72 11.94C4.44 13.15 5.59 12.81 6.05 12.6C6.12 12.08 6.33 11.73 6.56 11.53C4.78 11.33 2.92 10.64 2.92 7.58C2.92 6.71 3.23 5.99 3.74 5.43C3.66 5.23 3.38 4.41 3.82 3.31C3.82 3.31 4.49 3.1 6.02 4.13C6.66 3.95 7.34 3.86 8.02 3.86C8.7 3.86 9.38 3.95 10.02 4.13C11.55 3.09 12.22 3.31 12.22 3.31C12.66 4.41 12.38 5.23 12.3 5.43C12.81 5.99 13.12 6.7 13.12 7.58C13.12 10.65 11.25 11.33 9.47 11.53C9.76 11.78 10.01 12.26 10.01 13.01C10.01 14.08 10 14.94 10 15.21C10 15.42 10.15 15.67 10.55 15.59C13.71 14.53 16 11.53 16 8C16 3.58 12.42 0 8 0Z"
            transform="scale(64)" fill="#ffff" />
    </symbol>

    <!-- html -->
    <symbol id="tech-html" viewBox="0 0 452 520">
        <path fill="#e34f26" d="M41 460L0 0h451l-41 460-185 52" />
        <path fill="#ef652a" d="M226 472l149-41 35-394H226" />
        <path fill="#ecedee"
            d="M226 208h-75l-5-58h80V94H84l15 171h127zm0 147l-64-17-4-45h-56l7 89 117 32z" />
        <path fill="#fff" d="M226 265h69l-7 73-62 17v59l115-32 16-174H226zm0-171v56h136l5-56z" />
    </symbol>

    <!-- javascript -->
    <symbol id="tech-javascript" viewBox="0 0 1052 1052">
        <path fill="#f0db4f" d="M0 0h1052v1052H0z" />
        <path
            d="M965.9 801.1c-7.7-48-39-88.3-131.7-125.9-32.2-14.8-68.1-25.399-78.8-49.8-3.8-14.2-4.3-22.2-1.9-30.8 6.9-27.9 40.2-36.6 66.6-28.6 17 5.7 33.1 18.801 42.8 39.7 45.4-29.399 45.3-29.2 77-49.399-11.6-18-17.8-26.301-25.4-34-27.3-30.5-64.5-46.2-124-45-10.3 1.3-20.699 2.699-31 4-29.699 7.5-58 23.1-74.6 44-49.8 56.5-35.6 155.399 25 196.1 59.7 44.8 147.4 55 158.6 96.9 10.9 51.3-37.699 67.899-86 62-35.6-7.4-55.399-25.5-76.8-58.4-39.399 22.8-39.399 22.8-79.899 46.1 9.6 21 19.699 30.5 35.8 48.7 76.2 77.3 266.899 73.5 301.1-43.5 1.399-4.001 10.6-30.801 3.199-72.101zm-394-317.6h-98.4c0 85-.399 169.4-.399 254.4 0 54.1 2.8 103.7-6 118.9-14.4 29.899-51.7 26.2-68.7 20.399-17.3-8.5-26.1-20.6-36.3-37.699-2.8-4.9-4.9-8.7-5.601-9-26.699 16.3-53.3 32.699-80 49 13.301 27.3 32.9 51 58 66.399 37.5 22.5 87.9 29.4 140.601 17.3 34.3-10 63.899-30.699 79.399-62.199 22.4-41.3 17.6-91.3 17.4-146.6.5-90.2 0-180.4 0-270.9z"
            fill="#323330" />
    </symbol>

    <!-- mongodb -->
    <symbol id="tech-mongodb" fill="none" viewBox="0 0 120 257">
        <path fill="#00ED64"
            d="M82.323 28.55C71.537 15.795 62.249 2.84 60.35.15c-.2-.2-.5-.2-.7 0-1.897 2.69-11.185 15.645-21.971 28.4C-54.902 146.238 52.26 225.661 52.26 225.661l.9.597c.798 12.258 2.795 29.896 2.795 29.896h7.99s1.998-17.539 2.797-29.896l.899-.697c.1 0 107.263-79.323 14.68-197.01ZM59.95 223.867s-4.793-4.086-6.092-6.179v-.199l5.793-128.151c0-.4.6-.4.6 0l5.792 128.151v.199c-1.299 2.093-6.093 6.179-6.093 6.179Z" />
    </symbol>

    <!-- nodejs -->
    <symbol id="tech-nodejs" viewBox="0 0 256 292" xmlns="http://www.w3.org/2000/svg"
        xmlns:xlink="http://www.w3.org/1999/xlink">
        <defs>
            <linearGradient id="a" x1="68.188%" x2="27.823%" y1="17.487%" y2="89.755%">
                <stop offset="0%" stop-color="#41873F" />
                <stop offset="32.88%" stop-color="#418B3D" />
                <stop offset="63.52%" stop-color="#419637" />
                <stop offset="93.19%" stop-color="#3FA92D" />
                <stop offset="100%" stop-color="#3FAE2A" />
            </linearGradient>
            <linearGradient id="c" x1="43.277%" x2="159.245%" y1="55.169%" y2="-18.306%">
                <stop offset="13.76%" stop-color="#41873F" />
                <stop offset="40.32%" stop-color="#54A044" />
                <stop offset="71.36%" stop-color="#66B848" />
                <stop offset="90.81%" stop-color="#6CC04A" />
            </linearGradient>
            <linearGradient id="f" x1="-4.389%" x2="101.499%" y1="49.997%" y2="49.997%">
                <stop offset="9.192%" stop-color="#6CC04A" />
                <stop offset="28.64%" stop-color="#66B848" />
                <stop offset="59.68%" stop-color="#54A044" />
                <stop offset="86.24%" stop-color="#41873F" />
            </linearGradient>
            <path id="b"
                d="M134.923 1.832c-4.344-2.443-9.502-2.443-13.846 0L6.787 67.801C2.443 70.244 0 74.859 0 79.745v132.208c0 4.887 2.715 9.502 6.787 11.945l114.29 65.968c4.344 2.444 9.502 2.444 13.846 0l114.29-65.968c4.344-2.443 6.787-7.058 6.787-11.945V79.745c0-4.886-2.715-9.501-6.787-11.944L134.923 1.832Z" />
            <path id="e"
                d="M134.923 1.832c-4.344-2.443-9.502-2.443-13.846 0L6.787 67.801C2.443 70.244 0 74.859 0 79.745v132.208c0 4.887 2.715 9.502 6.787 11.945l114.29 65.968c4.344 2.444 9.502 2.444 13.846 0l114.29-65.968c4.344-2.443 6.787-7.058 6.787-11.945V79.745c0-4.886-2.715-9.501-6.787-11.944L134.923 1.832Z" />
        </defs>
        <path fill="url(#a)"
            d="M134.923 1.832c-4.344-2.443-9.502-2.443-13.846 0L6.787 67.801C2.443 70.244 0 74.859 0 79.745v132.208c0 4.887 2.715 9.502 6.787 11.945l114.29 65.968c4.344 2.444 9.502 2.444 13.846 0l114.29-65.968c4.344-2.443 6.787-7.058 6.787-11.945V79.745c0-4.886-2.715-9.501-6.787-11.944L134.923 1.832Z" />
        <mask id="d" fill="#fff">
            <use xlink:href="#b" />
        </mask>
        <path fill="url(#c)"
            d="M249.485 67.8 134.65 1.833c-1.086-.542-2.443-1.085-3.529-1.357L2.443 220.912c1.086 1.357 2.444 2.443 3.8 3.258l114.834 65.968c3.258 1.9 7.059 2.443 10.588 1.357L252.47 70.515c-.815-1.086-1.9-1.9-2.986-2.714Z"
            mask="url(#d)" />
        <mask id="g" fill="#fff">
            <use xlink:href="#e" />
        </mask>
        <path fill="url(#f)"
            d="M249.756 223.898c3.258-1.9 5.701-5.158 6.787-8.687L130.579.204c-3.258-.543-6.787-.272-9.773 1.628L6.786 67.53l122.979 224.238c1.628-.272 3.529-.815 5.158-1.63l114.833-66.239Z"
            mask="url(#g)" />
    </symbol>

    <!-- postman -->
    <symbol id="tech-postman" viewBox="0 0 256 256" preserveAspectRatio="xMidYMid">
        <path
            d="M254.953 144.253c8.959-70.131-40.569-134.248-110.572-143.206C74.378-7.912 10.005 41.616 1.047 111.619c-8.959 70.003 40.569 134.248 110.572 143.334 70.131 8.959 134.248-40.569 143.334-110.7Z"
            fill="#FF6C37" />
        <path d="m174.2 82.184-54.007 54.007-15.229-15.23c53.11-53.11 58.358-48.503 69.236-38.777Z"
            fill="#FFF" />
        <path
            d="M120.193 137.47c-.384 0-.64-.128-.895-.384l-15.358-15.229a1.237 1.237 0 0 1 0-1.792c54.007-54.006 59.638-48.887 71.028-38.649.255.256.383.512.383.896s-.128.64-.383.896l-54.007 53.878c-.128.256-.512.384-.768.384Zm-13.437-16.509 13.437 13.438 52.087-52.087c-9.47-8.446-15.87-11.006-65.524 38.65Z"
            fill="#FF6C37" />
        <path
            d="m135.679 151.676-14.718-14.718 54.007-54.006c14.46 14.59-7.167 38.265-39.29 68.724Z"
            fill="#FFF" />
        <path
            d="M135.679 152.956c-.384 0-.64-.128-.896-.384l-14.718-14.718c-.256-.256-.256-.512-.256-.896s.128-.64.384-.895L174.2 82.056a1.237 1.237 0 0 1 1.791 0 15.58 15.58 0 0 1 4.991 11.902c-.256 14.206-16.38 32.25-44.28 58.614-.383.256-.767.384-1.023.384Zm-12.926-15.998c8.19 8.319 11.646 11.646 12.926 12.926 21.5-20.476 42.36-41.464 42.488-55.926.128-3.327-1.152-6.655-3.327-9.214l-52.087 52.214Z"
            fill="#FF6C37" />
        <path
            d="m105.22 121.345 10.878 10.878c.256.256.256.512 0 .768-.128.128-.128.128-.256.128l-22.524 4.863c-1.152.128-2.175-.64-2.431-1.791-.128-.64.128-1.28.512-1.664l13.053-13.054c.256-.256.64-.384.768-.128Z"
            fill="#FFF" />
        <path
            d="M92.934 139.262c-1.92 0-3.327-1.536-3.327-3.455 0-.896.384-1.792 1.024-2.432l13.053-13.054c.768-.64 1.792-.64 2.56 0l10.878 10.878c.768.64.768 1.792 0 2.56-.256.256-.512.384-.896.512l-22.524 4.863c-.256 0-.512.128-.768.128Zm11.902-16.51-12.542 12.543c-.256.256-.383.64-.128 1.024.128.383.512.511.896.383l21.116-4.607-9.342-9.342Z"
            fill="#FF6C37" />
        <path
            d="M202.739 52.238c-8.191-7.935-21.373-7.679-29.307.64-7.935 8.318-7.679 21.372.64 29.306A20.678 20.678 0 0 0 199.155 85l-14.59-14.59 18.174-18.172Z"
            fill="#FFF" />
        <path
            d="M188.405 89.223c-12.158 0-22.012-9.854-22.012-22.012 0-12.158 9.854-22.012 22.012-22.012 5.631 0 11.134 2.176 15.23 6.143.255.256.383.512.383.896s-.128.64-.384.895L186.357 70.41l13.566 13.566c.512.512.512 1.28 0 1.792l-.256.256c-3.327 2.047-7.295 3.199-11.262 3.199Zm0-41.337c-10.75 0-19.452 8.703-19.324 19.453 0 10.75 8.702 19.452 19.452 19.324 2.944 0 5.887-.64 8.575-2.047l-13.438-13.31c-.256-.256-.384-.512-.384-.896s.128-.64.384-.895l17.149-17.15c-3.456-2.943-7.807-4.479-12.414-4.479Z"
            fill="#FF6C37" />
        <path
            d="m203.122 52.622-.255-.256-18.301 18.044 14.461 14.462c1.408-.896 2.816-1.92 3.967-3.072a20.51 20.51 0 0 0 .128-29.178Z"
            fill="#FFF" />
        <path
            d="M199.155 86.28c-.384 0-.64-.128-.896-.384l-14.589-14.59c-.256-.256-.384-.512-.384-.896s.128-.64.384-.895l18.173-18.173a1.237 1.237 0 0 1 1.791 0l.384.256c8.575 8.574 8.575 22.396.128 31.098-1.28 1.28-2.687 2.432-4.223 3.328-.384.128-.64.256-.768.256Zm-12.798-15.87 12.926 12.926c1.024-.64 2.048-1.536 2.816-2.304 7.294-7.294 7.678-19.196.64-26.875L186.357 70.41Z"
            fill="#FF6C37" />
        <path
            d="M176.375 84.488a7.879 7.879 0 0 0-11.134 0l-48.247 48.247 8.063 8.063 51.062-44.792c3.328-2.816 3.584-7.807.768-11.134-.256-.128-.384-.256-.512-.384Z"
            fill="#FFF" />
        <path
            d="M124.929 142.077c-.384 0-.64-.128-.896-.383l-8.063-8.063a1.237 1.237 0 0 1 0-1.792l48.247-48.247a9.115 9.115 0 0 1 12.926 0 9.115 9.115 0 0 1 0 12.926l-.384.384-51.063 44.792c-.128.255-.384.383-.767.383Zm-6.143-9.342 6.27 6.271 50.167-44.024c2.816-2.304 3.072-6.527.768-9.342-2.303-2.816-6.526-3.072-9.342-.768-.128.128-.256.256-.512.384l-47.351 47.48Z"
            fill="#FF6C37" />
        <path
            d="M80.009 187.637c-.512.256-.768.768-.64 1.28l2.175 9.214c.512 1.28-.256 2.816-1.663 3.2-1.024.384-2.176 0-2.816-.768l-14.077-13.95 45.943-45.943 15.87.256 10.75 10.75c-2.56 2.175-18.045 17.149-55.542 35.961Z"
            fill="#FFF" />
        <path
            d="M78.985 202.61c-1.024 0-2.048-.383-2.688-1.151l-13.95-13.95c-.255-.256-.383-.512-.383-.896 0-.383.128-.64.384-.895l45.944-45.944c.256-.256.64-.384.895-.384l15.87.256c.383 0 .64.128.895.384l10.75 10.75c.256.256.384.64.384 1.024s-.128.64-.512.896l-.895.767c-13.566 11.902-31.995 23.804-54.902 35.194l2.175 9.086c.384 1.664-.384 3.456-1.92 4.352-.767.384-1.407.512-2.047.512Zm-14.078-15.997 13.182 13.054c.384.64 1.152.896 1.792.512.64-.384.896-1.152.512-1.792l-2.176-9.214c-.256-1.152.256-2.176 1.28-2.688 22.652-11.39 40.952-23.163 54.39-34.81l-9.47-9.47-14.718-.256-44.792 44.664Z"
            fill="#FF6C37" />
        <path
            d="m52.11 197.62 11.006-11.007 16.38 16.381-26.107-1.791c-1.151-.128-1.92-1.152-1.791-2.304 0-.512.128-1.024.512-1.28Z"
            fill="#FFF" />
        <path
            d="m79.497 204.146-26.236-1.791c-1.92-.128-3.199-1.792-3.071-3.712.128-.768.384-1.535 1.024-2.047L62.22 185.59a1.237 1.237 0 0 1 1.792 0l16.38 16.38c.385.385.512.897.257 1.408-.256.512-.64.768-1.152.768Zm-16.381-15.74-10.11 10.11c-.384.255-.384.895 0 1.151.127.128.255.256.511.256l22.652 1.536-13.053-13.054ZM104.452 146.557c-.768 0-1.28-.64-1.28-1.28 0-.384.128-.64.384-.896l12.414-12.414a1.237 1.237 0 0 1 1.792 0l8.062 8.063c.384.384.512.768.384 1.28-.128.384-.512.767-1.023.895l-20.477 4.352h-.256Zm12.414-11.902-8.446 8.446 13.821-2.943-5.375-5.503Z"
            fill="#FF6C37" />
        <path
            d="m124.8 140.926-14.077 3.071c-1.024.256-2.048-.384-2.303-1.408-.128-.64 0-1.28.511-1.791l7.807-7.807 8.063 7.935Z"
            fill="#FFF" />
        <path
            d="M110.467 145.277a3.168 3.168 0 0 1-3.2-3.2c0-.895.385-1.663.897-2.303l7.806-7.807a1.237 1.237 0 0 1 1.792 0l8.062 8.063c.384.384.512.768.384 1.28-.128.384-.512.767-1.023.895l-14.078 3.072h-.64Zm6.399-10.622-6.91 6.91c-.257.257-.257.512-.129.768s.384.384.768.384l11.774-2.56-5.503-5.502ZM203.25 64.907c-.256-.767-1.151-1.151-1.92-.895-.767.255-1.151 1.151-.895 1.92 0 .127.128.255.128.383.768 1.536.512 3.455-.512 4.863-.512.64-.384 1.536.128 2.048.64.512 1.536.384 2.048-.256 1.92-2.432 2.303-5.503 1.023-8.063Z"
            fill="#FF6C37" />
    </symbol>

    <!-- react -->
    <symbol id="tech-react" viewBox="0 0 569 512">
        <g fill="none" fill-rule="evenodd">
            <g transform="translate(-227, -256)" fill="#58C4DC" fill-rule="nonzero">
                <g transform="translate(227, 256)">
                    <path
                        d="M285.5,201 C255.400481,201 231,225.400481 231,255.5 C231,285.599519 255.400481,310 285.5,310 C315.599519,310 340,285.599519 340,255.5 C340,225.400481 315.599519,201 285.5,201"
                        id="Path"></path>
                    <path
                        d="M568.959856,255.99437 C568.959856,213.207656 529.337802,175.68144 466.251623,150.985214 C467.094645,145.423543 467.85738,139.922107 468.399323,134.521063 C474.621631,73.0415145 459.808523,28.6686204 426.709856,9.5541429 C389.677085,-11.8291748 337.36955,3.69129898 284.479928,46.0162134 C231.590306,3.69129898 179.282771,-11.8291748 142.25,9.5541429 C109.151333,28.6686204 94.3382249,73.0415145 100.560533,134.521063 C101.102476,139.922107 101.845139,145.443621 102.708233,151.02537 C97.4493791,153.033193 92.2908847,155.161486 87.3331099,157.39017 C31.0111824,182.708821 0,217.765415 0,255.99437 C0,298.781084 39.6220545,336.307301 102.708233,361.003527 C101.845139,366.565197 101.102476,372.066633 100.560533,377.467678 C94.3382249,438.947226 109.151333,483.32012 142.25,502.434597 C153.629683,508.887578 166.52439,512.186771 179.603923,511.991836 C210.956328,511.991836 247.567589,495.487529 284.479928,465.972527 C321.372196,495.487529 358.003528,511.991836 389.396077,511.991836 C402.475265,512.183856 415.36922,508.884856 426.75,502.434597 C459.848667,483.32012 474.661775,438.947226 468.439467,377.467678 C467.897524,372.066633 467.134789,366.565197 466.291767,361.003527 C529.377946,336.347457 569,298.761006 569,255.99437 M389.155214,27.1025182 C397.565154,26.899606 405.877839,28.9368502 413.241569,33.0055186 C436.223966,46.2772304 446.540955,82.2775015 441.522965,131.770345 C441.181741,135.143488 440.780302,138.556788 440.298575,141.990165 C414.066922,134.08804 387.205771,128.452154 360.010724,125.144528 C343.525021,103.224055 325.192524,82.7564475 305.214266,63.9661533 C336.586743,39.7116483 366.032313,27.1025182 389.135142,27.1025182 M378.356498,310.205598 C368.204912,327.830733 357.150626,344.919965 345.237759,361.405091 C325.045049,363.479997 304.758818,364.51205 284.459856,364.497299 C264.167589,364.51136 243.888075,363.479308 223.702025,361.405091 C211.820914,344.919381 200.80007,327.83006 190.683646,310.205598 C180.532593,292.629285 171.306974,274.534187 163.044553,255.99437 C171.306974,237.454554 180.532593,219.359455 190.683646,201.783142 C200.784121,184.229367 211.770999,167.201087 223.601665,150.764353 C243.824636,148.63809 264.145559,147.579168 284.479928,147.591877 C304.772146,147.579725 325.051559,148.611772 345.237759,150.68404 C357.109048,167.14607 368.136094,184.201112 378.27621,201.783142 C388.419418,219.363718 397.644825,237.458403 405.915303,255.99437 C397.644825,274.530337 388.419418,292.625022 378.27621,310.205598 M419.724813,290.127366 C426.09516,307.503536 431.324985,325.277083 435.380944,343.334682 C417.779633,348.823635 399.836793,353.149774 381.668372,356.285142 C388.573127,345.871232 395.263781,335.035679 401.740334,323.778483 C408.143291,312.655143 414.144807,301.431411 419.805101,290.207679 M246.363271,390.377981 C258.848032,391.140954 271.593728,391.582675 284.5,391.582675 C297.406272,391.582675 310.232256,391.140954 322.737089,390.377981 C310.880643,404.583418 298.10766,417.997563 284.5,430.534446 C270.921643,417.999548 258.18192,404.585125 246.363271,390.377981 Z M187.311556,356.244986 C169.137286,353.123646 151.187726,348.810918 133.578912,343.334682 C137.618549,325.305649 142.828222,307.559058 149.174827,290.207679 C154.754833,301.431411 160.736278,312.655143 167.239594,323.778483 C173.74291,334.901824 180.467017,345.864539 187.311556,356.285142 M149.174827,221.760984 C142.850954,204.473938 137.654787,186.794745 133.619056,168.834762 C151.18418,163.352378 169.085653,159.013101 187.211197,155.844146 C180.346585,166.224592 173.622478,176.986525 167.139234,188.210257 C160.65599,199.433989 154.734761,210.517173 149.074467,221.760984 M322.616657,121.590681 C310.131896,120.827708 297.3862,120.385987 284.379568,120.385987 C271.479987,120.385987 258.767744,120.787552 246.242839,121.590681 C258.061488,107.383537 270.801211,93.9691137 284.379568,81.4342157 C297.99241,93.9658277 310.765727,107.380324 322.616657,121.590681 Z M401.70019,188.210257 C395.196875,176.939676 388.472767,166.09743 381.527868,155.68352 C399.744224,158.819049 417.734224,163.151949 435.380944,168.654058 C431.331963,186.680673 426.122466,204.426664 419.785029,221.781062 C414.205023,210.55733 408.203506,199.333598 401.720262,188.230335 M127.517179,131.790423 C122.438973,82.3176579 132.816178,46.2973086 155.778503,33.0255968 C163.144699,28.9632474 171.455651,26.9264282 179.864858,27.1225964 C202.967687,27.1225964 232.413257,39.7317265 263.785734,63.9862316 C243.794133,82.7898734 225.448298,103.270812 208.949132,125.204763 C181.761691,128.528025 154.90355,134.14313 128.661281,141.990165 C128.199626,138.556788 127.778115,135.163566 127.456963,131.790423 M98.4529773,182.106474 C101.54406,180.767925 104.695358,179.429376 107.906872,178.090828 C114.220532,204.735668 122.781793,230.7969 133.498624,255.99437 C122.761529,281.241316 114.193296,307.357063 107.8868,334.058539 C56.7434387,313.076786 27.0971497,284.003505 27.0971497,255.99437 C27.0971497,229.450947 53.1907013,202.526037 98.4529773,182.106474 Z M155.778503,478.963143 C132.816178,465.691432 122.438973,429.671082 127.517179,380.198317 C127.838331,376.825174 128.259842,373.431953 128.721497,369.978497 C154.953686,377.878517 181.814655,383.514365 209.009348,386.824134 C225.500295,408.752719 243.832321,429.233234 263.805806,448.042665 C220.069,481.834331 180.105722,492.97775 155.838719,478.963143 M441.502893,380.198317 C446.520883,429.691161 436.203894,465.691432 413.221497,478.963143 C388.974566,493.017906 348.991216,481.834331 305.274481,448.042665 C325.241364,429.232737 343.566681,408.752215 360.050868,386.824134 C387.245915,383.516508 414.107066,377.880622 440.338719,369.978497 C440.820446,373.431953 441.221885,376.825174 441.563109,380.198317 M461.193488,334.018382 C454.869166,307.332523 446.294494,281.231049 435.561592,255.99437 C446.289797,230.744081 454.857778,204.629101 461.173416,177.930202 C512.216417,198.911955 541.942994,227.985236 541.942994,255.99437 C541.942994,284.003505 512.296705,313.076786 461.153344,334.058539"
                        id="Shape"></path>
                </g>
            </g>
        </g>
    </symbol>

    <symbol id="tech-sass" viewBox="0 0 512 384">
        <path fill="#CF649A"
            d="M441 221c-18 0-34 4-47 10-5-9-9-17-10-24s-2-11-1-20 6-21 6-22c0 0-1-5-11-5-11 0-20 2-21 5l-4 15c-2 9-20 43-31 60-4-7-7-13-7-17-1-8-2-12-1-21s6-20 6-21-1-6-11-6c-11 0-20 2-21 5l-4 15-34 76-8 18c-2 4 0 0 0 1l-3 5-4 5s-1-7 1-16c3-19 12-49 12-51 0 0 2-5-6-8-7-3-9 2-10 2l-1 1s8-34-16-34c-14 0-35 17-45 31l-34 19-17 9-1-1c-29-31-82-52-79-93 0-15 6-54 101-102 79-39 141-28 152-4 16 34-33 97-115 106-31 3-47-9-51-13-4-5-5-5-7-4s-1 5 0 8c3 6 13 17 30 23 15 5 51 8 95-9 49-19 88-72 77-117-12-45-87-60-157-35-43 15-88 39-121 70-39 36-45 68-43 81 10 47 74 78 100 100l-3 2c-13 7-63 33-75 60-14 31 2 53 13 56 33 10 68-7 86-34 18-28 16-64 8-80l-1-1 11-6 18-10c-3 9-5 19-6 34-2 17 6 40 15 49 4 4 9 4 12 4 11 0 16-9 22-20l13-28s-8 41 13 41c7 0 15-9 18-14l1-1 1-2 20-37 25-57 5 20c2 8 7 16 10 24l-4 7-8 10c-10 12-23 26-24 30-2 5-2 8 2 11 3 2 8 2 13 2l18-4 17-9c10-7 16-18 15-32 0-7-3-15-6-22l3-4c16-23 28-49 28-49l5 21 9 20a89 89 0 0 0-27 36c-6 17-2 24 7 26 4 1 10-1 14-3 5-1 11-4 17-8 10-8 20-18 19-32 0-6-2-13-4-19 12-5 29-8 49-5 45 5 54 33 52 44-2 12-11 18-14 20l-4 4c1 2 2 2 5 2 3-1 23-10 24-31 1-28-25-58-71-57zM97 336c-14 16-35 23-44 17-9-5-6-29 13-46 11-10 25-20 34-26l9-5 1-1 3-1c6 24 0 45-16 62zm108-73c-5 13-16 45-22 43-6-1-9-26-2-50 4-12 13-26 18-32 8-9 17-12 19-8 3 5-10 39-13 47zm89 43-5 1v-2l16-17 9-11v1c0 14-14 24-20 28zm68-16c-2-1-1-5 4-16 2-5 7-13 15-20l2 9c0 18-13 24-21 27z" />
    </symbol>

    <!-- tailwindcss -->
    <symbol id="tech-tailwindcss" fill="none" viewBox="0 0 54 33">
        <g clip-path="url(#a)">
            <path fill="#38bdf8" fill-rule="evenodd"
                d="M27 0c-7.2 0-11.7 3.6-13.5 10.8 2.7-3.6 5.85-4.95 9.45-4.05 2.054.513 3.522 2.004 5.147 3.653C30.744 13.09 33.808 16.2 40.5 16.2c7.2 0 11.7-3.6 13.5-10.8-2.7 3.6-5.85 4.95-9.45 4.05-2.054-.513-3.522-2.004-5.147-3.653C36.756 3.11 33.692 0 27 0zM13.5 16.2C6.3 16.2 1.8 19.8 0 27c2.7-3.6 5.85-4.95 9.45-4.05 2.054.514 3.522 2.004 5.147 3.653C17.244 29.29 20.308 32.4 27 32.4c7.2 0 11.7-3.6 13.5-10.8-2.7 3.6-5.85 4.95-9.45 4.05-2.054-.513-3.522-2.004-5.147-3.653C23.256 19.31 20.192 16.2 13.5 16.2z"
                clip-rule="evenodd" />
        </g>
        <defs>
            <clipPath id="a">
                <path fill="#fff" d="M0 0h54v32.4H0z" />
            </clipPath>
        </defs>
    </symbol>

    <!-- typescript -->
    <symbol id="tech-typescript" viewBox="0 0 256 256">
        <path
            d="M20 0h216c11.046 0 20 8.954 20 20v216c0 11.046-8.954 20-20 20H20c-11.046 0-20-8.954-20-20V20C0 8.954 8.954 0 20 0Z"
            fill="#3178C6" />
        <path
            d="M150.518 200.475v27.62c4.492 2.302 9.805 4.028 15.938 5.179 6.133 1.151 12.597 1.726 19.393 1.726 6.622 0 12.914-.633 18.874-1.899 5.96-1.266 11.187-3.352 15.678-6.257 4.492-2.906 8.048-6.704 10.669-11.394 2.62-4.689 3.93-10.486 3.93-17.391 0-5.006-.749-9.394-2.246-13.163a30.748 30.748 0 0 0-6.479-10.055c-2.821-2.935-6.205-5.567-10.149-7.898-3.945-2.33-8.394-4.531-13.347-6.602-3.628-1.497-6.881-2.949-9.761-4.359-2.879-1.41-5.327-2.848-7.342-4.316-2.016-1.467-3.571-3.021-4.665-4.661-1.094-1.64-1.641-3.495-1.641-5.567 0-1.899.489-3.61 1.468-5.135s2.362-2.834 4.147-3.927c1.785-1.094 3.973-1.942 6.565-2.547 2.591-.604 5.471-.906 8.638-.906 2.304 0 4.737.173 7.299.518 2.563.345 5.14.877 7.732 1.597a53.669 53.669 0 0 1 7.558 2.719 41.7 41.7 0 0 1 6.781 3.797v-25.807c-4.204-1.611-8.797-2.805-13.778-3.582-4.981-.777-10.697-1.165-17.147-1.165-6.565 0-12.784.705-18.658 2.115-5.874 1.409-11.043 3.61-15.506 6.602-4.463 2.993-7.99 6.805-10.582 11.437-2.591 4.632-3.887 10.17-3.887 16.615 0 8.228 2.375 15.248 7.127 21.06 4.751 5.811 11.963 10.731 21.638 14.759a291.458 291.458 0 0 1 10.625 4.575c3.283 1.496 6.119 3.049 8.509 4.66 2.39 1.611 4.276 3.366 5.658 5.265 1.382 1.899 2.073 4.057 2.073 6.474a9.901 9.901 0 0 1-1.296 4.963c-.863 1.524-2.174 2.848-3.93 3.97-1.756 1.122-3.945 1.999-6.565 2.632-2.62.633-5.687.95-9.2.95-5.989 0-11.92-1.05-17.794-3.151-5.875-2.1-11.317-5.25-16.327-9.451Zm-46.036-68.733H140V109H41v22.742h35.345V233h28.137V131.742Z"
            fill="#FFF" />
    </symbol>

    <!--  -->

    <!-- angular -->
    <symbol id="tech-angular" viewBox="-8 0 272 272">
        <g>
            <path
                d="M0.0996108949,45.522179 L125.908171,0.697276265 L255.103502,44.7252918 L234.185214,211.175097 L125.908171,271.140856 L19.3245136,211.971984 L0.0996108949,45.522179 Z"
                fill="#E23237">

            </path>
            <path
                d="M255.103502,44.7252918 L125.908171,0.697276265 L125.908171,271.140856 L234.185214,211.274708 L255.103502,44.7252918 L255.103502,44.7252918 Z"
                fill="#B52E31">

            </path>
            <path
                d="M126.107393,32.27393 L126.107393,32.27393 L47.7136187,206.692607 L76.9992218,206.194553 L92.7377432,166.848249 L126.207004,166.848249 L126.306615,166.848249 L163.063035,166.848249 L180.29572,206.692607 L208.286381,207.190661 L126.107393,32.27393 L126.107393,32.27393 Z M126.306615,88.155642 L152.803113,143.5393 L127.402335,143.5393 L126.107393,143.5393 L102.997665,143.5393 L126.306615,88.155642 L126.306615,88.155642 Z"
                fill="#FFFFFF">

            </path>
        </g>
    </symbol>

    <!-- aws -->
    <symbol id="tech-aws" viewBox="0 0 304 182">
        <path fill="#ffffff"
            d="m86 66 2 9c0 3 1 5 3 8v2l-1 3-7 4-2 1-3-1-4-5-3-6c-8 9-18 14-29 14-9 0-16-3-20-8-5-4-8-11-8-19s3-15 9-20c6-6 14-8 25-8a79 79 0 0 1 22 3v-7c0-8-2-13-5-16-3-4-8-5-16-5l-11 1a80 80 0 0 0-14 5h-2c-1 0-2-1-2-3v-5l1-3c0-1 1-2 3-2l12-5 16-2c12 0 20 3 26 8 5 6 8 14 8 25v32zM46 82l10-2c4-1 7-4 10-7l3-6 1-9v-4a84 84 0 0 0-19-2c-6 0-11 1-15 4-3 2-4 6-4 11s1 8 3 11c3 2 6 4 11 4zm80 10-4-1-2-3-23-78-1-4 2-2h10l4 1 2 4 17 66 15-66 2-4 4-1h8l4 1 2 4 16 67 17-67 2-4 4-1h9c2 0 3 1 3 2v2l-1 2-24 78-2 4-4 1h-9l-4-1-1-4-16-65-15 64-2 4-4 1h-9zm129 3a66 66 0 0 1-27-6l-3-3-1-2v-5c0-2 1-3 2-3h2l3 1a54 54 0 0 0 23 5c6 0 11-2 14-4 4-2 5-5 5-9l-2-7-10-5-15-5c-7-2-13-6-16-10a24 24 0 0 1 5-34l10-5a44 44 0 0 1 20-2 110 110 0 0 1 12 3l4 2 3 2 1 4v4c0 3-1 4-2 4l-4-2c-6-2-12-3-19-3-6 0-11 0-14 2s-4 5-4 9c0 3 1 5 3 7s5 4 11 6l14 4c7 3 12 6 15 10s5 9 5 14l-3 12-7 8c-3 3-7 5-11 6l-14 2z" />
        <path d="M274 144A220 220 0 0 1 4 124c-4-3-1-6 2-4a300 300 0 0 0 263 16c5-2 10 4 5 8z"
            fill="#f90" />
        <path
            d="M287 128c-4-5-28-3-38-1-4 0-4-3-1-5 19-13 50-9 53-5 4 5-1 36-18 51-3 2-6 1-5-2 5-10 13-33 9-38z"
            fill="#f90" />
    </symbol>

    <!-- docker -->
    <symbol id="tech-docker" viewBox="0 0 24 24" fill="#008fe2">
        <path
            d="M13.98 11.08h2.12a.19.19 0 0 0 .19-.19V9.01a.19.19 0 0 0-.19-.19h-2.12a.18.18 0 0 0-.18.18v1.9c0 .1.08.18.18.18m-2.95-5.43h2.12a.19.19 0 0 0 .18-.19V3.57a.19.19 0 0 0-.18-.18h-2.12a.18.18 0 0 0-.19.18v1.9c0 .1.09.18.19.18m0 2.71h2.12a.19.19 0 0 0 .18-.18V6.29a.19.19 0 0 0-.18-.18h-2.12a.18.18 0 0 0-.19.18v1.89c0 .1.09.18.19.18m-2.93 0h2.12a.19.19 0 0 0 .18-.18V6.29a.18.18 0 0 0-.18-.18H8.1a.18.18 0 0 0-.18.18v1.89c0 .1.08.18.18.18m-2.96 0h2.11a.19.19 0 0 0 .19-.18V6.29a.18.18 0 0 0-.19-.18H5.14a.19.19 0 0 0-.19.18v1.89c0 .1.08.18.19.18m5.89 2.72h2.12a.19.19 0 0 0 .18-.19V9.01a.19.19 0 0 0-.18-.19h-2.12a.18.18 0 0 0-.19.18v1.9c0 .1.09.18.19.18m-2.93 0h2.12a.18.18 0 0 0 .18-.19V9.01a.18.18 0 0 0-.18-.19H8.1a.18.18 0 0 0-.18.18v1.9c0 .1.08.18.18.18m-2.96 0h2.11a.18.18 0 0 0 .19-.19V9.01a.18.18 0 0 0-.18-.19H5.14a.19.19 0 0 0-.19.19v1.88c0 .1.08.19.19.19m-2.92 0h2.12a.18.18 0 0 0 .18-.19V9.01a.18.18 0 0 0-.18-.19H2.22a.18.18 0 0 0-.19.18v1.9c0 .1.08.18.19.18m21.54-1.19c-.06-.05-.67-.51-1.95-.51-.34 0-.68.03-1.01.09a3.77 3.77 0 0 0-1.72-2.57l-.34-.2-.23.33a4.6 4.6 0 0 0-.6 1.43c-.24.97-.1 1.88.4 2.66a4.7 4.7 0 0 1-1.75.42H.76a.75.75 0 0 0-.76.75 11.38 11.38 0 0 0 .7 4.06 6.03 6.03 0 0 0 2.4 3.12c1.18.73 3.1 1.14 5.28 1.14.98 0 1.96-.08 2.93-.26a12.25 12.25 0 0 0 3.82-1.4 10.5 10.5 0 0 0 2.61-2.13c1.25-1.42 2-3 2.55-4.4h.23c1.37 0 2.21-.55 2.68-1 .3-.3.55-.66.7-1.06l.1-.28Z" />
    </symbol>

    <!-- java -->
    <symbol id="tech-java" viewBox="0 0 256 346">
        <path
            d="M83 267s-14 8 9 11c27 3 41 2 71-3 0 0 8 5 19 9-67 29-153-2-99-17M74 230s-15 11 8 13c29 3 52 3 92-4 0 0 6 5 15 8-82 24-173 2-115-17"
            fill="#5382A1" />
        <path d="M144 166c17 19-4 36-4 36s42-22 22-49c-18-26-32-38 44-82 0 0-119 29-62 95"
            fill="#E76F00" />
        <path
            d="M233 295s10 8-10 15c-39 12-163 15-197 0-12-5 11-13 18-14l12-2c-14-9-89 19-38 28 138 22 251-10 215-27M89 190s-63 15-22 21c17 2 51 2 83-1 26-2 52-7 52-7l-16 9c-64 16-187 8-151-9 30-14 54-13 54-13M202 253c64-33 34-66 13-61l-7 2s2-3 6-5c41-14 73 43-14 66l2-2"
            fill="#5382A1" />
        <path d="M162 0s36 36-34 91c-56 45-12 70 0 99-32-30-56-56-40-80 23-35 89-53 74-110"
            fill="#E76F00" />
        <path d="M95 345c62 4 158-3 160-32 0 0-4 11-51 20-53 10-119 9-158 2 0 0 8 7 49 10"
            fill="#5382A1" />
    </symbol>

    <!-- postgresql -->
    <symbol id="tech-postgresql" viewBox="0 0 432.071 445.383">
        <g
            style="fill-rule:nonzero;clip-rule:nonzero;fill:none;stroke:#fff;stroke-width:12.4651;stroke-linecap:round;stroke-linejoin:round;stroke-miterlimit:4">
            <path
                d="M323.205 324.227c2.833-23.601 1.984-27.062 19.563-23.239l4.463.392c13.517.615 31.199-2.174 41.587-7 22.362-10.376 35.622-27.7 13.572-23.148-50.297 10.376-53.755-6.655-53.755-6.655 53.111-78.803 75.313-178.836 56.149-203.322-52.27-66.789-142.748-35.206-144.262-34.386l-.482.089c-9.938-2.062-21.06-3.294-33.554-3.496-22.761-.374-40.032 5.967-53.133 15.904 0 0-161.408-66.498-153.899 83.628 1.597 31.936 45.777 241.655 98.47 178.31 19.259-23.163 37.871-42.748 37.871-42.748 9.242 6.14 20.307 9.272 31.912 8.147l.897-.765c-.281 2.876-.157 5.689.359 9.019-13.572 15.167-9.584 17.83-36.723 23.416-27.457 5.659-11.326 15.734-.797 18.367 12.768 3.193 42.305 7.716 62.268-20.224l-.795 3.188c5.325 4.26 4.965 30.619 5.72 49.452.756 18.834 2.017 36.409 5.856 46.771 3.839 10.36 8.369 37.05 44.036 29.406 29.809-6.388 52.6-15.582 54.677-101.107"
                style="fill:#000;stroke:#000;stroke-width:37.3953;stroke-linecap:butt;stroke-linejoin:miter" />
            <path stroke="none"
                d="M402.395 271.23c-50.302 10.376-53.76-6.655-53.76-6.655 53.111-78.808 75.313-178.843 56.153-203.326-52.27-66.785-142.752-35.2-144.262-34.38l-.486.087c-9.938-2.063-21.06-3.292-33.56-3.496-22.761-.373-40.026 5.967-53.127 15.902 0 0-161.411-66.495-153.904 83.63 1.597 31.938 45.776 241.657 98.471 178.312 19.26-23.163 37.869-42.748 37.869-42.748 9.243 6.14 20.308 9.272 31.908 8.147l.901-.765c-.28 2.876-.152 5.689.361 9.019-13.575 15.167-9.586 17.83-36.723 23.416-27.459 5.659-11.328 15.734-.796 18.367 12.768 3.193 42.307 7.716 62.266-20.224l-.796 3.188c5.319 4.26 9.054 27.711 8.428 48.969-.626 21.259-1.044 35.854 3.147 47.254 4.191 11.4 8.368 37.05 44.042 29.406 29.809-6.388 45.256-22.942 47.405-50.555 1.525-19.631 4.976-16.729 5.194-34.28l2.768-8.309c3.192-26.611.507-35.196 18.872-31.203l4.463.392c13.517.615 31.208-2.174 41.591-7 22.358-10.376 35.618-27.7 13.573-23.148z"
                style="fill:#336791;stroke:none" />
            <path
                d="M215.866 286.484c-1.385 49.516.348 99.377 5.193 111.495 4.848 12.118 15.223 35.688 50.9 28.045 29.806-6.39 40.651-18.756 45.357-46.051 3.466-20.082 10.148-75.854 11.005-87.281M173.104 38.256S11.583-27.76 19.092 122.365c1.597 31.938 45.779 241.664 98.473 178.316 19.256-23.166 36.671-41.335 36.671-41.335M260.349 26.207c-5.591 1.753 89.848-34.889 144.087 34.417 19.159 24.484-3.043 124.519-56.153 203.329" />
            <path
                d="M348.282 263.953s3.461 17.036 53.764 6.653c22.04-4.552 8.776 12.774-13.577 23.155-18.345 8.514-59.474 10.696-60.146-1.069-1.729-30.355 21.647-21.133 19.96-28.739-1.525-6.85-11.979-13.573-18.894-30.338-6.037-14.633-82.796-126.849 21.287-110.183 3.813-.789-27.146-99.002-124.553-100.599-97.385-1.597-94.19 119.762-94.19 119.762"
                style="stroke-linejoin:bevel" />
            <path
                d="M188.604 274.334c-13.577 15.166-9.584 17.829-36.723 23.417-27.459 5.66-11.326 15.733-.797 18.365 12.768 3.195 42.307 7.718 62.266-20.229 6.078-8.509-.036-22.086-8.385-25.547-4.034-1.671-9.428-3.765-16.361 3.994z" />
            <path
                d="M187.715 274.069c-1.368-8.917 2.93-19.528 7.536-31.942 6.922-18.626 22.893-37.255 10.117-96.339-9.523-44.029-73.396-9.163-73.436-3.193-.039 5.968 2.889 30.26-1.067 58.548-5.162 36.913 23.488 68.132 56.479 64.938" />
            <path
                d="M172.517 141.7c-.288 2.039 3.733 7.48 8.976 8.207 5.234.73 9.714-3.522 9.998-5.559.284-2.039-3.732-4.285-8.977-5.015-5.237-.731-9.719.333-9.996 2.367z"
                style="fill:#fff;stroke-width:4.155;stroke-linecap:butt;stroke-linejoin:miter" />
            <path
                d="M331.941 137.543c.284 2.039-3.732 7.48-8.976 8.207-5.238.73-9.718-3.522-10.005-5.559-.277-2.039 3.74-4.285 8.979-5.015 5.239-.73 9.718.333 10.002 2.368z"
                style="fill:#fff;stroke-width:2.0775;stroke-linecap:butt;stroke-linejoin:miter" />
            <path
                d="M350.676 123.432c.863 15.994-3.445 26.888-3.988 43.914-.804 24.748 11.799 53.074-7.191 81.435" />
        </g>
    </symbol>

    <!-- springboot -->
    <symbol viewBox="0 0 64 64" id="tech-springboot">
        <path
            d="M58.2 3.365a29.503 29.503 0 0 1-3.419 6.064A32.094 32.094 0 1 0 9.965 55.372l1.186 1.047a32.08 32.08 0 0 0 52.67-22.253c.875-8.17-1.524-18.51-5.62-30.8zM14.53 55.558a2.744 2.744 0 1 1-.404-3.857 2.744 2.744 0 0 1 .404 3.857zm43.538-9.61c-7.92 10.55-24.83 6.99-35.672 7.502 0 0-1.922.113-3.857.43 0 0 .73-.31 1.663-.663 7.614-2.65 11.213-3.16 15.838-5.54 8.708-4.427 17.322-14.122 19.112-24.2-3.313 9.695-13.373 18.032-22.53 21.418-6.276 2.313-17.614 4.566-17.614 4.566l-.457-.245c-7.714-3.75-7.952-20.457 6.077-25.845 6.143-2.366 12.02-1.067 18.654-2.65 7.084-1.683 15.28-6.99 18.615-13.916 3.73 11.08 8.224 28.422.166 39.15z"
            fill="#68bd45" />
    </symbol>
</svg>